HIERARCHY
ROOT reference
{
  OFFSET -65.3212 -1.93545 -120.338
  CHANNELS 6 Xposition Yposition Zposition Zrotation Xrotation Yrotation
  JOINT Hips
  {
    OFFSET 0 78.7191 0
    CHANNELS 3 Zrotation Xrotation Yrotation
    JOINT Chest
    {
      OFFSET 0 8.7983 -4.7612
      CHANNELS 3 Zrotation Xrotation Yrotation
      JOINT Chest2
      {
        OFFSET 0 8.0291 0.4195
        CHANNELS 3 Zrotation Xrotation Yrotation
        JOINT Chest3
        {
          OFFSET 0 9.9351 -2.2114
          CHANNELS 3 Zrotation Xrotation Yrotation
          JOINT Neck
          {
            OFFSET 0 22.3885 -0.4656
            CHANNELS 3 Zrotation Xrotation Yrotation
            JOINT Head
            {
              OFFSET -0.0001 12.643 3.4389
              CHANNELS 3 Zrotation Xrotation Yrotation
              End Site
              {
                OFFSET 0.0001 17.6655 0.5274
              }
            }
          }
          JOINT LeftCollar
          {
            OFFSET 2.2603 21.606 7.4023
            CHANNELS 3 Zrotation Xrotation Yrotation
            JOINT LeftShoulder
            {
              OFFSET 13.5163 -1.1332 -5.0146
              CHANNELS 3 Zrotation Xrotation Yrotation
              JOINT LeftElbow
              {
                OFFSET -0.0995 -28.05 -0.2431
                CHANNELS 3 Zrotation Xrotation Yrotation
                JOINT LeftWrist
                {
                  OFFSET 0.0679 -23.3996 -0.1402
                  CHANNELS 3 Zrotation Xrotation Yrotation
                  JOINT LeftFinger1
                  {
                    OFFSET 0.7932 -9.069 2.5189
                    CHANNELS 3 Zrotation Xrotation Yrotation
                    JOINT LeftFinger11
                    {
                      OFFSET -0.8272 -3.3923 0.5977
                      CHANNELS 3 Zrotation Xrotation Yrotation
                      JOINT LeftFinger12
                      {
                        OFFSET -0.5649 -2.3158 0.4082
                        CHANNELS 3 Zrotation Xrotation Yrotation
                        End Site
                        {
                          OFFSET -0.4919 -1.6479 0.2673
                        }
                      }
                    }
                  }
                  JOINT LeftFinger2
                  {
                    OFFSET 0.9159 -9.2044 0.2193
                    CHANNELS 3 Zrotation Xrotation Yrotation
                    JOINT LeftFinger21
                    {
                      OFFSET 0.0117 -4.1944 -0.0248
                      CHANNELS 3 Zrotation Xrotation Yrotation
                      JOINT LeftFinger22
                      {
                        OFFSET 0.0071 -2.3249 -0.0142
                        CHANNELS 3 Zrotation Xrotation Yrotation
                        End Site
                        {
                          OFFSET -0.1475 -2.0882 0.0028
                        }
                      }
                    }
                  }
                  JOINT LeftFinger3
                  {
                    OFFSET 0.6113 -8.7231 -2.0637
                    CHANNELS 3 Zrotation Xrotation Yrotation
                    JOINT LeftFinger31
                    {
                      OFFSET -0.1927 -3.8059 -0.2383
                      CHANNELS 3 Zrotation Xrotation Yrotation
                      JOINT LeftFinger32
                      {
                        OFFSET -0.1091 -2.1688 -0.1362
                        CHANNELS 3 Zrotation Xrotation Yrotation
                        End Site
                        {
                          OFFSET -0.2358 -1.9176 -0.0906
                        }
                      }
                    }
                  }
                  JOINT LeftFinger4
                  {
                    OFFSET -0.6151 -8.0947 -3.5641
                    CHANNELS 3 Zrotation Xrotation Yrotation
                    JOINT LeftFinger41
                    {
                      OFFSET -0.4882 -2.341 -0.6462
                      CHANNELS 3 Zrotation Xrotation Yrotation
                      JOINT LeftFinger42
                      {
                        OFFSET -0.3575 -1.7167 -0.4742
                        CHANNELS 3 Zrotation Xrotation Yrotation
                        End Site
                        {
                          OFFSET -0.4187 -1.5237 -0.3496
                        }
                      }
                    }
                  }
                  JOINT LeftFinger0
                  {
                    OFFSET -1.42 -1.8761 1.4223
                    CHANNELS 3 Zrotation Xrotation Yrotation
                    JOINT LeftFinger01
                    {
                      OFFSET -1.1471 -3.4929 2.6334
                      CHANNELS 3 Zrotation Xrotation Yrotation
                      JOINT LeftFinger02
                      {
                        OFFSET -0.823 -2.3 1.6571
                        CHANNELS 3 Zrotation Xrotation Yrotation
                        End Site
                        {
                          OFFSET -0.5822 -1.6914 1.1582
                        }
                      }
                    }
                  }
                }
              }
            }
          }
          JOINT RightCollar
          {
            OFFSET -2.2603 21.606 7.4023
            CHANNELS 3 Zrotation Xrotation Yrotation
            JOINT RightShoulder
            {
              OFFSET -13.5187 -1.1334 -5.0155
              CHANNELS 3 Zrotation Xrotation Yrotation
              JOINT RightElbow
              {
                OFFSET 0.0994 -28.0499 -0.2431
                CHANNELS 3 Zrotation Xrotation Yrotation
                JOINT RightWrist
                {
                  OFFSET -0.0679 -23.3996 -0.1402
                  CHANNELS 3 Zrotation Xrotation Yrotation
                  JOINT RightFinger1
                  {
                    OFFSET -0.7932 -9.0691 2.5189
                    CHANNELS 3 Zrotation Xrotation Yrotation
                    JOINT RightFinger11
                    {
                      OFFSET 0.8272 -3.3923 0.5977
                      CHANNELS 3 Zrotation Xrotation Yrotation
                      JOINT RightFinger12
                      {
                        OFFSET 0.565 -2.3158 0.4082
                        CHANNELS 3 Zrotation Xrotation Yrotation
                        End Site
                        {
                          OFFSET 0.4919 -1.6479 0.2673
                        }
                      }
                    }
                  }
                  JOINT RightFinger2
                  {
                    OFFSET -0.916 -9.2044 0.2193
                    CHANNELS 3 Zrotation Xrotation Yrotation
                    JOINT RightFinger21
                    {
                      OFFSET -0.0117 -4.1944 -0.0248
                      CHANNELS 3 Zrotation Xrotation Yrotation
                      JOINT RightFinger22
                      {
                        OFFSET -0.0071 -2.3249 -0.0142
                        CHANNELS 3 Zrotation Xrotation Yrotation
                        End Site
                        {
                          OFFSET 0.1475 -2.0882 0.0028
                        }
                      }
                    }
                  }
                  JOINT RightFinger3
                  {
                    OFFSET -0.6113 -8.7231 -2.0637
                    CHANNELS 3 Zrotation Xrotation Yrotation
                    JOINT RightFinger31
                    {
                      OFFSET 0.1927 -3.8059 -0.2383
                      CHANNELS 3 Zrotation Xrotation Yrotation
                      JOINT RightFinger32
                      {
                        OFFSET 0.1091 -2.1688 -0.1362
                        CHANNELS 3 Zrotation Xrotation Yrotation
                        End Site
                        {
                          OFFSET 0.2358 -1.9176 -0.0906
                        }
                      }
                    }
                  }
                  JOINT RightFinger4
                  {
                    OFFSET 0.6151 -8.0947 -3.564
                    CHANNELS 3 Zrotation Xrotation Yrotation
                    JOINT RightFinger41
                    {
                      OFFSET 0.4882 -2.341 -0.6462
                      CHANNELS 3 Zrotation Xrotation Yrotation
                      JOINT RightFinger42
                      {
                        OFFSET 0.3574 -1.7166 -0.4742
                        CHANNELS 3 Zrotation Xrotation Yrotation
                        End Site
                        {
                          OFFSET 0.4187 -1.5237 -0.3496
                        }
                      }
                    }
                  }
                  JOINT RightFinger0
                  {
                    OFFSET 1.4199 -1.8761 1.4221
                    CHANNELS 3 Zrotation Xrotation Yrotation
                    JOINT RightFinger01
                    {
                      OFFSET 1.1472 -3.4929 2.6336
                      CHANNELS 3 Zrotation Xrotation Yrotation
                      JOINT RightFinger02
                      {
                        OFFSET 0.8229 -2.3 1.6571
                        CHANNELS 3 Zrotation Xrotation Yrotation
                        End Site
                        {
                          OFFSET 0.5822 -1.6914 1.1582
                        }
                      }
                    }
                  }
                }
              }
            }
          }
        }
      }
    }
    JOINT RightHip
    {
      OFFSET -9.412 3.9771 -0.7758
      CHANNELS 3 Zrotation Xrotation Yrotation
      JOINT RightKnee
      {
        OFFSET -0.7531 -40.938 0
        CHANNELS 3 Zrotation Xrotation Yrotation
        JOINT RightAnkle
        {
          OFFSET 0 -40.1986 0
          CHANNELS 3 Zrotation Xrotation Yrotation
          JOINT RightToe
          {
            OFFSET 0 -4.4182 9.239
            CHANNELS 3 Zrotation Xrotation Yrotation
            End Site
            {
              OFFSET 0 0 6.1981
            }
          }
        }
      }
    }
    JOINT LeftHip
    {
      OFFSET 9.4119 3.9773 -0.7758
      CHANNELS 3 Zrotation Xrotation Yrotation
      JOINT LeftKnee
      {
        OFFSET 0.7532 -40.9383 0
        CHANNELS 3 Zrotation Xrotation Yrotation
        JOINT LeftAnkle
        {
          OFFSET 0 -40.1986 0
          CHANNELS 3 Zrotation Xrotation Yrotation
          JOINT LeftToe
          {
            OFFSET 0 -4.4182 9.239
            CHANNELS 3 Zrotation Xrotation Yrotation
            End Site
            {
              OFFSET 0 0 6.1981
            }
          }
        }
      }
    }
  }
}
MOTION
Frames:	8
Frame Time:	0.0333333
0.40135 -30.3423 1.37932 0 0 -0 -3.96693 3.67987 -2.66947 1.58806 6.41608 0.623579 3.1351 12.8468 1.07692 3.13511 12.8468 1.07692 2.21019 11.4304 1.88518 4.95401 15.37 4.81474 9.21044 -2.20483 -6.97889 32.6114 3.42033 23.2979 -157.661 -61.7649 -115.241 -19.8939 -19.2444 -6.73979 0.221892 13.0841 -16.4931 -0.126871 -1.72378 -0.669445 -1.64873 1.02684 -0.0737236 7.36828 1.10882 -8.86493 -14.5772 9.1924 -0.264004 -15.3411 9.66968 -0.215438 5.48245 5.03659 0.759966 -11.6759 8.14352 -0.721433 -13.3217 9.29244 -0.691423 9.27379 18.3539 1.86593 -11.0159 7.61116 -1.1094 -16.0438 11.1088 -1.12557 -7.55191 6.16807 1.51433 4.61879 5.96208 -1.49408 10.0017 12.3871 -3.74163 -16.4617 -0.0377015 11.1132 -29.0189 41.0493 -40.9673 151.374 -46.9328 106.812 -18.3357 -38.9411 60.1691 29.9033 15.0791 7.5488 17.7567 5.90631 -1.2103 23.8054 7.77456 -2.02794 15.4016 5.5705 7.06152 30.0687 9.86987 -1.9282 5.83196 1.98775 0.0376324 15.2703 13.4082 -2.1569 26.7646 10.2255 -0.905531 4.02143 1.55712 0.172378 15.9397 26.4315 -7.203 25.9974 9.82879 -0.0286017 7.12868 2.69186 0.439497 9.11159 18.3036 -19.7854 -4.34911 9.26976 3.30176 -8.30249 16.4189 6.52105 2.50141 -73.0108 2.6086 118.713 72.8175 -115.334 -7.50861 -17.6675 -12.8023 2.61905 -0.496845 -0.180795 -36.7456 -77.3881 -48.6429 -163.622 74.8831 170.375 -1.872 -6.28304 -2.1313 -2.1447 -5.85634 0.0285502 
0.349896 -30.2969 1.47096 0 0 -0 -3.99812 3.25829 -2.63912 1.59093 6.36208 0.600726 3.1436 12.7382 1.03186 3.14361 12.7382 1.03186 1.98254 11.2627 1.56952 4.8121 15.1722 4.46184 9.26744 -2.15758 -6.87736 32.507 6.74639 19.7896 -165.746 -62.8378 -123.786 -18.4645 -16.9855 -12.6034 1.13253 11.8027 -16.5844 -0.181412 -2.36359 -0.95644 -0.290224 0.180464 -0.0151324 9.2607 -0.52606 -8.67093 -12.4346 7.85216 -0.374329 -13.2259 8.34882 -0.340465 7.56662 3.65709 0.872177 -9.6132 6.70117 -0.716931 -11.2842 7.87116 -0.7265 11.4863 17.0337 1.5294 -8.96287 6.17829 -1.01352 -14.0022 9.69284 -1.1566 -7.5519 6.16808 1.51436 4.61885 5.96199 -1.49422 10.0017 12.3871 -3.74162 -16.4616 -0.0376845 11.1132 -29.3599 39.8596 -40.5972 150.98 -47.5012 106.614 -18.0741 -37.8485 60.6808 29.9032 15.0792 7.54882 17.7566 5.90632 -1.21031 23.8054 7.77457 -2.02793 15.4016 5.5705 7.06154 30.0687 9.86985 -1.92835 5.83196 1.98774 0.0376491 15.2703 13.4082 -2.15686 26.7646 10.2255 -0.905733 4.02143 1.55711 0.172365 15.9397 26.4315 -7.20294 25.9974 9.8288 -0.0285701 7.12872 2.69186 0.439463 9.11156 18.3036 -19.7854 -4.34911 9.26975 3.30179 -8.3025 16.4189 6.52106 1.20302 -73.2403 1.31234 119.085 72.8002 -115.692 -7.3421 -17.161 -12.7709 2.61902 -0.496839 -0.180739 -35.7665 -76.878 -47.6371 -163.546 74.9309 170.275 -1.81477 -6.33702 -2.15345 -2.1447 -5.85636 0.0285662 
0.248545 -30.1736 1.6755 0 0 -0 -4.03514 2.76787 -2.61052 1.59373 6.31395 0.578738 3.15181 12.6414 0.988417 3.15183 12.6415 0.98842 1.61235 10.9672 1.15769 4.53894 14.8305 4.00242 9.32807 -2.10739 -6.76934 32.7049 10.043 11.9752 176.669 -63.5551 -142.553 -15.3063 -15.7365 -19.5857 2.08424 10.4814 -16.6933 -0.244315 -3.05086 -1.28943 1.15472 -0.717296 0.0691351 11.1216 -2.1119 -8.43987 -10.3563 6.5421 -0.430875 -11.1203 7.02432 -0.415884 9.60805 2.32229 1.03192 -7.61034 5.29705 -0.660344 -9.25394 6.44957 -0.710568 13.6391 15.7593 1.25603 -6.96404 4.78558 -0.870816 -11.9693 8.27669 -1.1365 -7.55191 6.16808 1.5144 4.61883 5.96199 -1.49419 10.0017 12.3871 -3.74155 -16.4616 -0.0377436 11.1131 -29.5846 38.4749 -40.2217 150.646 -48.2236 106.543 -17.6715 -36.6064 61.3171 29.9032 15.0791 7.54886 17.7566 5.90629 -1.21027 23.8054 7.77456 -2.02791 15.4015 5.57048 7.06155 30.0687 9.86983 -1.92835 5.83196 1.98776 0.0376593 15.2703 13.4082 -2.15683 26.7646 10.2255 -0.905725 4.02139 1.5571 0.17238 15.9396 26.4315 -7.20286 25.9973 9.82878 -0.0285798 7.12868 2.69186 0.439488 9.11162 18.3035 -19.7855 -4.34914 9.26967 3.30182 -8.30248 16.4189 6.52105 -2.50981 -74.5553 -2.45625 120.001 72.7463 -116.512 -7.03739 -15.8735 -12.6422 2.61897 -0.496838 -0.180657 -34.1704 -76.1731 -46.0585 -163.422 75.0134 170.103 -1.78419 -6.5378 -2.19226 -2.14472 -5.85636 0.028603 
0.13043 -29.9827 1.96644 0 0 -0 -4.0775 2.21838 -2.58426 1.59636 6.27036 0.557583 3.15956 12.5537 0.946586 3.15957 12.5537 0.946587 1.11434 10.5568 0.65869 4.1436 14.3633 3.44805 9.3886 -2.05696 -6.6614 32.7581 13.1635 6.55263 164.246 -62.4543 -155.793 -11.9725 -15.821 -26.5725 3.08115 9.12129 -16.8052 -0.312096 -3.73258 -1.64651 2.61937 -1.62376 0.177493 12.8996 -3.60422 -8.18207 -8.39064 5.29841 -0.440244 -9.15268 5.78083 -0.441959 11.5505 1.06921 1.22888 -5.71302 3.96787 -0.561353 -7.35478 5.11804 -0.649756 15.6741 14.5645 1.04634 -5.06815 3.46995 -0.690793 -10.069 6.95046 -1.07177 -7.55194 6.16809 1.51443 4.61882 5.96197 -1.4942 10.0017 12.3872 -3.74144 -16.4616 -0.037624 11.1132 -29.7204 36.9261 -39.8353 150.336 -49.093 106.548 -17.1577 -35.2567 62.0461 29.9032 15.0792 7.54891 17.7566 5.90629 -1.21028 23.8054 7.77458 -2.02785 15.4015 5.57049 7.06159 30.0687 9.86983 -1.92836 5.83194 1.98774 0.0376619 15.2703 13.4082 -2.15674 26.7646 10.2255 -0.905732 4.0214 1.5571 0.17239 15.9397 26.4315 -7.20305 25.9973 9.82877 -0.0285465 7.12869 2.69185 0.439499 9.11167 18.3035 -19.7856 -4.34909 9.26971 3.30173 -8.30249 16.4189 6.52107 -8.42588 -76.5298 -8.5712 120.475 72.7969 -116.808 -6.76222 -14.1398 -12.4815 2.61909 -0.496851 -0.180842 -32.2789 -75.2846 -44.1974 -163.242 75.1413 169.875 -1.76116 -6.84212 -2.23289 -2.14475 -5.85637 0.0286662 
0.0283177 -29.735 2.31895 0 0 -0 -4.12452 1.61971 -2.5609 1.59879 6.22995 0.537253 3.16676 12.4724 0.906353 3.16676 12.4724 0.906356 0.50333 10.0447 0.0812264 3.63566 13.7891 2.8101 9.44568 -2.00952 -6.55945 32.0919 16.1015 11.7696 172.861 -63.1491 -146.269 -9.71063 -16.6158 -32.4764 4.12769 7.72332 -16.9052 -0.379331 -4.35891 -1.99935 4.08658 -2.52709 0.309079 14.5409 -4.96028 -7.91189 -6.59318 4.15937 -0.411298 -7.35412 4.64151 -0.428188 13.3363 -0.0670883 1.44794 -3.97511 2.75363 -0.432185 -5.61676 3.9006 -0.555356 17.5331 13.4811 0.89588 -3.32965 2.2705 -0.487899 -8.33113 5.73793 -0.973851 -7.55195 6.16804 1.51453 4.61883 5.96201 -1.49418 10.0017 12.3871 -3.74166 -16.4616 -0.0376752 11.1131 -29.7726 35.2747 -39.4465 150.042 -50.0696 106.605 -16.5612 -33.8398 62.8382 29.9033 15.0791 7.54878 17.7566 5.90632 -1.21022 23.8054 7.77459 -2.02775 15.4015 5.57055 7.06164 30.0687 9.86985 -1.92835 5.83196 1.98773 0.0377083 15.2703 13.4082 -2.15693 26.7646 10.2255 -0.905724 4.02142 1.55712 0.172369 15.9397 26.4314 -7.20306 25.9973 9.82881 -0.0285041 7.1287 2.69184 0.43951 9.11157 18.3036 -19.7854 -4.34908 9.26975 3.30174 -8.30252 16.4189 6.52111 -16.7355 -78.9811 -17.2754 120.173 72.9849 -116.259 -6.60724 -12.315 -12.3521 2.6191 -0.496836 -0.180827 -30.3544 -74.2278 -42.2859 -162.996 75.3172 169.595 -1.72401 -7.20896 -2.26119 -2.14471 -5.85638 0.0285432 
-0.0253707 -29.4431 2.70699 0 0 -0 -4.17556 0.982102 -2.54101 1.60093 6.19147 0.517689 3.17328 12.3949 0.867672 3.17329 12.3949 0.867673 -0.205159 9.44553 -0.565869 3.02584 13.1263 2.10024 9.49589 -1.9677 -6.46983 31.4862 18.7286 17.4278 -177.208 -63.1605 -135.352 -9.23833 -16.9049 -36.3738 5.2287 6.28827 -16.9782 -0.439662 -4.88306 -2.31394 5.46412 -3.37013 0.453425 15.9896 -6.13911 -7.6471 -5.01978 3.16258 -0.356565 -5.78026 3.64407 -0.386707 14.9064 -1.05373 1.66991 -2.45142 1.69344 -0.288846 -4.09415 2.83675 -0.442419 19.1572 12.5385 0.796354 -1.80389 1.2251 -0.280404 -6.80954 4.67843 -0.857942 -7.55193 6.16807 1.51441 4.6188 5.96199 -1.49416 10.0017 12.3871 -3.74167 -16.4616 -0.037691 11.1132 -29.7667 33.5545 -39.0519 149.735 -51.1385 106.671 -15.9096 -32.3935 63.6655 29.9032 15.0791 7.54878 17.7566 5.90634 -1.21013 23.8054 7.77456 -2.02797 15.4015 5.57048 7.0615 30.0687 9.86985 -1.92832 5.83196 1.98771 0.0377467 15.2703 13.4082 -2.15692 26.7646 10.2255 -0.905706 4.02141 1.5571 0.172391 15.9397 26.4314 -7.20303 25.9973 9.82878 -0.0284032 7.1287 2.69182 0.43954 9.1116 18.3036 -19.7854 -4.34908 9.26977 3.30173 -8.30255 16.4188 6.52118 -27.8282 -81.6665 -28.9706 118.366 73.3837 -114.131 -6.58431 -10.8115 -12.3028 2.6191 -0.496849 -0.180818 -28.6263 -73.0328 -40.5211 -162.69 75.5355 169.289 -1.6543 -7.5988 -2.26298 -2.14472 -5.85639 0.0285574 
-0.0182311 -29.086 3.14583 0 0 -0 -4.22989 0.315782 -2.52515 1.60282 6.15369 0.498869 3.17912 12.3188 0.83051 3.17913 12.3189 0.830511 -0.994832 8.77433 -1.27351 2.32656 12.3933 1.3308 9.54108 -1.93001 -6.38912 31.0513 21.1861 21.5575 -170.42 -62.6542 -127.822 -10.0391 -14.1529 -38.3433 6.76813 4.38608 -17.0028 -0.484044 -5.24758 -2.5437 6.93926 -4.2664 0.630175 17.0685 -7.01112 -7.42493 -3.85215 2.42386 -0.298287 -4.61255 2.90462 -0.338209 16.0717 -1.78709 1.85166 -1.31914 0.909176 -0.164295 -2.96337 2.04916 -0.340354 20.3494 11.821 0.741185 -0.669194 0.452911 -0.108468 -5.68011 3.89416 -0.753796 -7.55193 6.16808 1.51442 4.61879 5.96203 -1.49411 10.0017 12.3871 -3.74168 -16.4616 -0.0376596 11.1132 -29.718 31.8111 -38.6555 149.396 -52.2701 106.714 -15.2284 -30.9531 64.5028 29.9032 15.0791 7.5488 17.7566 5.90631 -1.21032 23.8054 7.77457 -2.02796 15.4015 5.57048 7.06151 30.0687 9.86985 -1.92829 5.83196 1.98776 0.0376264 15.2703 13.4082 -2.1569 26.7646 10.2255 -0.905677 4.02142 1.55708 0.172422 15.9397 26.4314 -7.203 25.9974 9.82878 -0.0285713 7.12872 2.69176 0.439594 9.1116 18.3035 -19.7855 -4.34908 9.26977 3.30173 -8.3025 16.4189 6.52105 -47.1847 -84.5622 -49.1863 113.568 74.1475 -109.002 -6.61032 -9.60729 -12.2734 2.61908 -0.496852 -0.180805 -27.0608 -71.6733 -38.8519 -162.283 75.8245 168.927 -1.54336 -8.01922 -2.22951 -2.14473 -5.85636 0.0285743 
0.0311444 -28.6499 3.63482 0 0 -0 -4.28669 -0.368837 -2.51385 1.60439 6.11543 0.480749 3.1843 12.2419 0.794817 3.18431 12.2419 0.794818 -1.84831 8.04708 -2.03207 1.55241 11.6084 0.514743 9.58122 -1.8966 -6.31734 30.5604 23.413 27.1776 -161.276 -61.3469 -117.698 -10.9717 -8.42384 -39.1604 8.45268 2.38109 -16.9751 -0.50904 -5.44543 -2.6723 8.29762 -5.08499 0.812982 17.674 -7.50352 -7.28272 -3.19482 2.00859 -0.258863 -3.95529 2.48889 -0.304289 16.7243 -2.20621 1.95917 -0.681092 0.468799 -0.0873785 -2.32648 1.60679 -0.276074 21.006 11.3911 0.716237 -0.0294632 0.0197526 -0.00493328 -5.04418 3.45368 -0.688385 -7.55192 6.16811 1.51441 4.61877 5.96209 -1.49403 10.0018 12.3871 -3.74167 -16.4617 -0.0377213 11.1132 -29.6429 30.0865 -38.2616 149.004 -53.4343 106.7 -14.5422 -29.5509 65.3266 29.9032 15.0791 7.54882 17.7566 5.90629 -1.21031 23.8054 7.77457 -2.02798 15.4015 5.57047 7.0615 30.0687 9.86989 -1.92822 5.83196 1.98775 0.037648 15.2703 13.4082 -2.15691 26.7646 10.2255 -0.905608 4.02143 1.55706 0.172422 15.9397 26.4315 -7.20295 25.9974 9.82879 -0.0285826 7.12871 2.69187 0.439473 9.11163 18.3035 -19.7855 -4.34908 9.26976 3.30174 -8.30249 16.4189 6.52105 -93.3663 -86.3506 -96.4693 103.272 75.241 -98.4082 -6.55367 -8.30399 -12.1935 2.61907 -0.496848 -0.180779 -25.6005 -70.1511 -37.2331 -161.73 76.2077 168.454 -1.40914 -8.46167 -2.16426 -2.14474 -5.85639 0.0286203 
